<svg xmlns="http://www.w3.org/2000/svg" xmlns:xlink="http://www.w3.org/1999/xlink"><symbol id="arrow-left" viewBox="2 24 60 16">
<path d="M61 32H3M3 32L10 25M3 32L10 39" stroke="currentColor" stroke-width="2"/>
</symbol><symbol id="arrow-right" viewBox="2.25 24.25 59.5 15.5">
<path d="M3 32H61M61 32L54 25M61 32L54 39" stroke="currentColor" stroke-width="1.5"/>
</symbol><symbol id="consult" viewBox="0 0 64 64">
<path d="M55.696 61.8504L47.62 57.4038C40.8741 59.399 33.5202 58.715 27.4014 55.4656L28.0665 54.2114C33.9382 57.3278 41.0261 57.9549 47.4869 55.9596L47.772 55.8646L54.2708 59.4371V52.5962L54.5558 52.3872C59.6485 48.6437 62.5748 43.171 62.5748 37.3943C62.5748 31.6746 59.6485 26.1449 55.0119 22.8575C55.3159 24.2827 55.4679 25.7458 55.4679 27.266C55.4679 34.4299 51.8955 41.1758 45.6627 45.7553C38.0998 51.323 28.0855 52.9952 18.7934 50.2019L9.5962 55.2755V45.5843C3.47744 40.9667 0 34.2969 0 27.247C0 13.8884 12.4466 3 27.7245 3C40.4751 3 51.2304 10.5629 54.4608 20.8052C60.2565 24.2066 63.981 30.6865 63.981 37.3943C63.981 43.5131 60.9596 49.3088 55.677 53.3183V61.8504H55.696ZM27.7245 4.42518C13.2257 4.42518 1.42518 14.6675 1.42518 27.247C1.42518 33.9549 4.8076 40.2827 10.7173 44.6342L11.0024 44.8432V52.8432L18.6223 48.6437L18.9074 48.7387C27.8575 51.5131 37.5297 49.9549 44.8076 44.5962C50.7553 40.2066 54.0428 34.0499 54.0428 27.247C54.0428 14.6675 42.2423 4.42518 27.7245 4.42518ZM26.6793 36.4632H13.6437V35.038H26.6983V36.4632H26.6793ZM41.8242 27.361H13.6437V25.9359H41.8432V27.361H41.8242ZM41.8242 18.2589H13.6437V16.8337H41.8432V18.2589H41.8242Z" fill="#222222"/>
</symbol><symbol id="delivery" viewBox="0 11.17 64 42.81">
<path d="M51.5469 53.9752H42.203V52.7479H48.2905C47.4068 51.9788 46.8013 50.8824 46.6541 49.6715H18.5569C18.246 52.0934 16.1841 53.9752 13.6804 53.9752H0.621836V52.7479H10.4403C9.55663 51.9788 8.95116 50.8824 8.80389 49.6715H3.89466C1.75096 49.6551 0 47.9205 0 45.7605V15.0614C0 12.9177 1.75096 11.1667 3.89466 11.1667H40.4684C42.6121 11.1667 44.3631 12.9177 44.3631 15.0614V21.2961H57.2907C59.4017 21.2961 61.3163 23.0144 61.5617 25.1253L63.9673 45.7114C64.0982 46.775 63.7873 47.7569 63.1163 48.526C62.4454 49.2787 61.5127 49.6878 60.449 49.6878H56.4071C56.1289 52.0934 54.0506 53.9752 51.5469 53.9752ZM51.5469 52.7479C53.5761 52.7479 55.2452 51.0952 55.2452 49.0496C55.2452 47.0041 53.5924 45.3514 51.5469 45.3514C49.5014 45.3514 47.8486 47.0041 47.8486 49.0496C47.8486 51.0952 49.5014 52.7479 51.5469 52.7479ZM13.6804 52.7479C15.7095 52.7479 17.3787 51.0952 17.3787 49.0496C17.3787 47.0041 15.7259 45.3514 13.6804 45.3514C11.6349 45.3514 9.9821 47.0041 9.9821 49.0496C9.9821 51.0952 11.6349 52.7479 13.6804 52.7479ZM56.4234 48.4278H60.4654C61.1526 48.4278 61.7745 48.166 62.1999 47.6751C62.6418 47.1841 62.8218 46.5296 62.74 45.8259L61.0872 31.7364H48.6505V30.5091H60.9399L60.3181 25.2399C60.1381 23.7344 58.7635 22.5071 57.258 22.5071H44.3303V45.7605H43.103V15.0614C43.103 13.5886 41.9085 12.3941 40.4357 12.3941H3.89466C2.42189 12.3941 1.22731 13.5886 1.22731 15.0614V45.7605C1.22731 47.2332 2.42189 48.4278 3.89466 48.4278H8.78752C9.09844 46.0059 11.1603 44.124 13.664 44.124C16.1677 44.124 18.246 46.0059 18.5405 48.4278H46.6377C46.9486 46.0059 49.0105 44.124 51.5142 44.124C54.0179 44.124 56.1289 46.0059 56.4234 48.4278Z" fill="white"/>
</symbol><symbol id="fast" viewBox="0 0 64 64">
<path d="M15.9594 64H14.6055L14.9165 63.0486L26.0223 35.8788H17.789L30.8342 6.42196C17.2401 7.02573 6.37221 18.2962 6.37221 32C6.37221 39.7027 9.7936 46.948 15.7764 51.833L14.8982 52.8942C8.60435 47.7347 5 40.1235 5 32C5 17.3265 16.8193 5.32419 31.438 5.01315L33.6518 0H53.6861L38.2258 25.0292H46.4225L22.3997 55.7667C25.4551 56.9926 28.6752 57.6146 31.9869 57.6146C46.1115 57.6146 57.6015 46.1246 57.6015 32C57.6015 25.3219 55.04 18.9914 50.3928 14.1795L51.3808 13.2281C56.2842 18.2962 58.9737 24.956 58.9737 32C58.9737 46.8748 46.8616 58.9869 31.9869 58.9869C28.3642 58.9869 24.833 58.2733 21.5214 56.8828L15.9594 64ZM19.8931 34.5066H28.0715L17.972 59.1881L43.6232 26.4014H35.7742L51.2344 1.37221H34.5483L19.8931 34.5066Z" fill="#222222"/>
</symbol><symbol id="guarantee" viewBox="0 0 64 64">
<path d="M29.4176 61.5984L29.1488 61.4832C1.9808 50.424 2 25.9248 2 9.72V8.664L2.4224 8.472C10.0064 4.8816 19.28 3 29.2448 3C29.36 3 29.456 3 29.5712 3C36.9632 3 44.2016 4.0752 50.5184 6.1296L50.0768 7.4928C43.9136 5.4768 36.8288 4.4208 29.5712 4.4208C29.4752 4.4208 29.36 4.4208 29.264 4.4208C19.8176 4.4208 10.6784 6.2448 3.44 9.5664V9.72C3.44 25.4832 3.44 49.2912 29.4176 60.0432C51.7472 50.808 55.0688 32.1648 55.3568 15.1536L56.7968 15.1728C56.4896 32.7408 53.0144 51.9792 29.6864 61.4832L29.4176 61.5984ZM29.4368 39.7488L16.2848 26.3472L17.3216 25.3296L29.3984 37.6368L60.944 3.2304L62 4.2096L29.4368 39.7488Z" fill="black"/>
</symbol><symbol id="pay" viewBox="2 4.5 60 56.88">
<path d="M58.989 61.3826H5.01095C3.35036 61.3826 2 60.0323 2 58.3717V25.525C2 23.8644 3.35036 22.514 5.01095 22.514H42.5109L31.2883 6.56512C31.0328 6.20016 30.6496 5.96293 30.2299 5.88994C29.792 5.81695 29.354 5.90819 28.989 6.16366L10.9416 18.8644L10.1569 17.7513L28.1861 5.05052C29.5547 4.08337 31.4343 4.43008 32.4015 5.78045L44.1898 22.514H58.989C60.6496 22.514 62 23.8644 62 25.525V58.3534C62 60.0323 60.6496 61.3826 58.989 61.3826ZM5.01095 23.8826C4.09854 23.8826 3.36861 24.6308 3.36861 25.525V58.3534C3.36861 59.2659 4.11679 59.9958 5.01095 59.9958H58.9708C59.8832 59.9958 60.6131 59.2476 60.6131 58.3534V25.525C60.6131 24.6126 59.865 23.8826 58.9708 23.8826H5.01095ZM9.64599 56.4191H8.27737V53.0797H9.64599V56.4191ZM41.1788 50.8534H39.8102V47.879H36.7445V46.5104H39.8102V42.6965H36.7445V41.3279H39.8102V32.7513H45.9781C48.7153 32.7513 50.9416 34.9775 50.9416 37.7148C50.9416 40.452 48.7153 42.6783 45.9781 42.6783H41.1971V46.4921H45.9781V47.8607H41.1971V50.8534H41.1788ZM41.1788 41.3279H45.9599C47.9489 41.3279 49.5547 39.7038 49.5547 37.733C49.5547 35.7622 47.9489 34.1381 45.9599 34.1381H41.1788V41.3279ZM9.64599 50.0505H8.27737V46.7111H9.64599V50.0505ZM9.64599 43.6819H8.27737V40.3425H9.64599V43.6819ZM9.64599 37.3133H8.27737V33.9739H9.64599V37.3133ZM9.64599 30.9447H8.27737V27.6053H9.64599V30.9447Z" fill="white"/>
</symbol><symbol id="self" viewBox="6 2 51.56 60">
<path d="M16.025 62C11.8382 62 8.43536 58.5972 8.43536 54.4103C8.43536 50.4404 11.5046 47.171 15.4078 46.8374V11.8415C15.4078 10.0734 14.5238 8.45538 13.0225 7.52127L6 3.05088L6.66722 2L13.6897 6.47039C15.5413 7.63803 16.6589 9.65638 16.6589 11.8415V46.8374C20.412 47.1376 23.3978 50.1902 23.6147 53.9766H44.2819C47.151 53.9766 49.9533 55.1443 51.9716 57.196L55.6414 60.9324L54.7573 61.8165L51.0876 58.0801C49.3028 56.2786 46.834 55.2277 44.2986 55.2277H23.5646C23.1643 59.0309 19.9283 62 16.025 62ZM16.025 48.0717C12.5221 48.0717 9.68641 50.9241 9.68641 54.4103C9.68641 57.8966 12.5388 60.749 16.025 60.749C19.5113 60.749 22.3636 57.8966 22.3636 54.4103C22.3636 50.9241 19.5279 48.0717 16.025 48.0717ZM53.6731 47.0709H26.2836C24.1318 47.0709 22.397 45.3194 22.397 43.1843V15.7781C22.397 13.6264 24.1485 11.8916 26.2836 11.8916H53.6731C55.8249 11.8916 57.5596 13.643 57.5596 15.7781V43.1676C57.5596 45.3194 55.8249 47.0709 53.6731 47.0709ZM26.2836 13.1426C24.8324 13.1426 23.648 14.3269 23.648 15.7781V43.1676C23.648 44.6188 24.8324 45.8032 26.2836 45.8032H53.6731C55.1243 45.8032 56.3086 44.6188 56.3086 43.1676V15.7781C56.3086 14.3269 55.1243 13.1426 53.6731 13.1426H26.2836ZM51.3711 28.9892H28.5855V27.7381H51.3711V28.9892ZM51.3711 21.5329H28.5855V20.2819H51.3711V21.5329Z" fill="white"/>
</symbol><symbol id="set" viewBox="12 2.5 40.43 60">
<path d="M52.427 62.5H12V61.219H52.427V62.5ZM47.5764 56.693H16.8506C15.2963 56.693 14.0325 55.4291 14.0325 53.8749V5.3181C14.0325 3.76388 15.2963 2.5 16.8506 2.5H47.5764C49.1307 2.5 50.3945 3.76388 50.3945 5.3181V53.8749C50.4116 55.4291 49.1477 56.693 47.5764 56.693ZM16.8506 3.78096C15.9966 3.78096 15.3134 4.48121 15.3134 5.3181V53.8749C15.3134 54.7289 16.0137 55.412 16.8506 55.412H47.5764C48.4304 55.412 49.1136 54.7118 49.1136 53.8749V5.3181C49.1136 4.46413 48.4133 3.78096 47.5764 3.78096H16.8506ZM42.2989 31.3813C40.8984 31.3813 39.7711 30.237 39.7711 28.8535C39.7711 27.453 40.9155 26.3258 42.2989 26.3258C43.6994 26.3258 44.8266 27.4701 44.8266 28.8535C44.8266 30.2541 43.6823 31.3813 42.2989 31.3813ZM42.2989 27.6067C41.6157 27.6067 41.0521 28.1704 41.0521 28.8535C41.0521 29.5367 41.6157 30.1003 42.2989 30.1003C42.9821 30.1003 43.5457 29.5367 43.5457 28.8535C43.5457 28.1704 42.9821 27.6067 42.2989 27.6067Z" fill="white"/>
</symbol></svg>