<svg xmlns="http://www.w3.org/2000/svg" xmlns:xlink="http://www.w3.org/1999/xlink"><symbol id="delivery" viewBox="0 11.17 64 42.81">
<path d="M51.5469 53.9752H42.203V52.7479H48.2905C47.4068 51.9788 46.8013 50.8824 46.6541 49.6715H18.5569C18.246 52.0934 16.1841 53.9752 13.6804 53.9752H0.621836V52.7479H10.4403C9.55663 51.9788 8.95116 50.8824 8.80389 49.6715H3.89466C1.75096 49.6551 0 47.9205 0 45.7605V15.0614C0 12.9177 1.75096 11.1667 3.89466 11.1667H40.4684C42.6121 11.1667 44.3631 12.9177 44.3631 15.0614V21.2961H57.2907C59.4017 21.2961 61.3163 23.0144 61.5617 25.1253L63.9673 45.7114C64.0982 46.775 63.7873 47.7569 63.1163 48.526C62.4454 49.2787 61.5127 49.6878 60.449 49.6878H56.4071C56.1289 52.0934 54.0506 53.9752 51.5469 53.9752ZM51.5469 52.7479C53.5761 52.7479 55.2452 51.0952 55.2452 49.0496C55.2452 47.0041 53.5924 45.3514 51.5469 45.3514C49.5014 45.3514 47.8486 47.0041 47.8486 49.0496C47.8486 51.0952 49.5014 52.7479 51.5469 52.7479ZM13.6804 52.7479C15.7095 52.7479 17.3787 51.0952 17.3787 49.0496C17.3787 47.0041 15.7259 45.3514 13.6804 45.3514C11.6349 45.3514 9.9821 47.0041 9.9821 49.0496C9.9821 51.0952 11.6349 52.7479 13.6804 52.7479ZM56.4234 48.4278H60.4654C61.1526 48.4278 61.7745 48.166 62.1999 47.6751C62.6418 47.1841 62.8218 46.5296 62.74 45.8259L61.0872 31.7364H48.6505V30.5091H60.9399L60.3181 25.2399C60.1381 23.7344 58.7635 22.5071 57.258 22.5071H44.3303V45.7605H43.103V15.0614C43.103 13.5886 41.9085 12.3941 40.4357 12.3941H3.89466C2.42189 12.3941 1.22731 13.5886 1.22731 15.0614V45.7605C1.22731 47.2332 2.42189 48.4278 3.89466 48.4278H8.78752C9.09844 46.0059 11.1603 44.124 13.664 44.124C16.1677 44.124 18.246 46.0059 18.5405 48.4278H46.6377C46.9486 46.0059 49.0105 44.124 51.5142 44.124C54.0179 44.124 56.1289 46.0059 56.4234 48.4278Z" fill="white"/>
</symbol><symbol id="pay" viewBox="2 4.5 60 56.88">
<path d="M58.989 61.3826H5.01095C3.35036 61.3826 2 60.0323 2 58.3717V25.525C2 23.8644 3.35036 22.514 5.01095 22.514H42.5109L31.2883 6.56512C31.0328 6.20016 30.6496 5.96293 30.2299 5.88994C29.792 5.81695 29.354 5.90819 28.989 6.16366L10.9416 18.8644L10.1569 17.7513L28.1861 5.05052C29.5547 4.08337 31.4343 4.43008 32.4015 5.78045L44.1898 22.514H58.989C60.6496 22.514 62 23.8644 62 25.525V58.3534C62 60.0323 60.6496 61.3826 58.989 61.3826ZM5.01095 23.8826C4.09854 23.8826 3.36861 24.6308 3.36861 25.525V58.3534C3.36861 59.2659 4.11679 59.9958 5.01095 59.9958H58.9708C59.8832 59.9958 60.6131 59.2476 60.6131 58.3534V25.525C60.6131 24.6126 59.865 23.8826 58.9708 23.8826H5.01095ZM9.64599 56.4191H8.27737V53.0797H9.64599V56.4191ZM41.1788 50.8534H39.8102V47.879H36.7445V46.5104H39.8102V42.6965H36.7445V41.3279H39.8102V32.7513H45.9781C48.7153 32.7513 50.9416 34.9775 50.9416 37.7148C50.9416 40.452 48.7153 42.6783 45.9781 42.6783H41.1971V46.4921H45.9781V47.8607H41.1971V50.8534H41.1788ZM41.1788 41.3279H45.9599C47.9489 41.3279 49.5547 39.7038 49.5547 37.733C49.5547 35.7622 47.9489 34.1381 45.9599 34.1381H41.1788V41.3279ZM9.64599 50.0505H8.27737V46.7111H9.64599V50.0505ZM9.64599 43.6819H8.27737V40.3425H9.64599V43.6819ZM9.64599 37.3133H8.27737V33.9739H9.64599V37.3133ZM9.64599 30.9447H8.27737V27.6053H9.64599V30.9447Z" fill="white"/>
</symbol><symbol id="self" viewBox="6 2 51.56 60">
<path d="M16.025 62C11.8382 62 8.43536 58.5972 8.43536 54.4103C8.43536 50.4404 11.5046 47.171 15.4078 46.8374V11.8415C15.4078 10.0734 14.5238 8.45538 13.0225 7.52127L6 3.05088L6.66722 2L13.6897 6.47039C15.5413 7.63803 16.6589 9.65638 16.6589 11.8415V46.8374C20.412 47.1376 23.3978 50.1902 23.6147 53.9766H44.2819C47.151 53.9766 49.9533 55.1443 51.9716 57.196L55.6414 60.9324L54.7573 61.8165L51.0876 58.0801C49.3028 56.2786 46.834 55.2277 44.2986 55.2277H23.5646C23.1643 59.0309 19.9283 62 16.025 62ZM16.025 48.0717C12.5221 48.0717 9.68641 50.9241 9.68641 54.4103C9.68641 57.8966 12.5388 60.749 16.025 60.749C19.5113 60.749 22.3636 57.8966 22.3636 54.4103C22.3636 50.9241 19.5279 48.0717 16.025 48.0717ZM53.6731 47.0709H26.2836C24.1318 47.0709 22.397 45.3194 22.397 43.1843V15.7781C22.397 13.6264 24.1485 11.8916 26.2836 11.8916H53.6731C55.8249 11.8916 57.5596 13.643 57.5596 15.7781V43.1676C57.5596 45.3194 55.8249 47.0709 53.6731 47.0709ZM26.2836 13.1426C24.8324 13.1426 23.648 14.3269 23.648 15.7781V43.1676C23.648 44.6188 24.8324 45.8032 26.2836 45.8032H53.6731C55.1243 45.8032 56.3086 44.6188 56.3086 43.1676V15.7781C56.3086 14.3269 55.1243 13.1426 53.6731 13.1426H26.2836ZM51.3711 28.9892H28.5855V27.7381H51.3711V28.9892ZM51.3711 21.5329H28.5855V20.2819H51.3711V21.5329Z" fill="white"/>
</symbol><symbol id="set" viewBox="12 2.5 40.43 60">
<path d="M52.427 62.5H12V61.219H52.427V62.5ZM47.5764 56.693H16.8506C15.2963 56.693 14.0325 55.4291 14.0325 53.8749V5.3181C14.0325 3.76388 15.2963 2.5 16.8506 2.5H47.5764C49.1307 2.5 50.3945 3.76388 50.3945 5.3181V53.8749C50.4116 55.4291 49.1477 56.693 47.5764 56.693ZM16.8506 3.78096C15.9966 3.78096 15.3134 4.48121 15.3134 5.3181V53.8749C15.3134 54.7289 16.0137 55.412 16.8506 55.412H47.5764C48.4304 55.412 49.1136 54.7118 49.1136 53.8749V5.3181C49.1136 4.46413 48.4133 3.78096 47.5764 3.78096H16.8506ZM42.2989 31.3813C40.8984 31.3813 39.7711 30.237 39.7711 28.8535C39.7711 27.453 40.9155 26.3258 42.2989 26.3258C43.6994 26.3258 44.8266 27.4701 44.8266 28.8535C44.8266 30.2541 43.6823 31.3813 42.2989 31.3813ZM42.2989 27.6067C41.6157 27.6067 41.0521 28.1704 41.0521 28.8535C41.0521 29.5367 41.6157 30.1003 42.2989 30.1003C42.9821 30.1003 43.5457 29.5367 43.5457 28.8535C43.5457 28.1704 42.9821 27.6067 42.2989 27.6067Z" fill="white"/>
</symbol></svg>