<svg width="240" height="57" viewBox="0 0 240 57" fill="none" xmlns="http://www.w3.org/2000/svg">
<path d="M30.72 41.2874H22.1558V40.983H30.72V41.2874ZM30.72 40.1794H22.1558V39.875H30.72V40.1794ZM30.72 39.0653H22.1558V38.7609H30.72V39.0653ZM30.72 37.9574H22.1558V37.653H30.72V37.9574ZM30.72 36.8494H22.1558V36.545H30.72V36.8494ZM30.72 35.7414H22.1558V35.437H30.72V35.7414ZM30.72 34.6334H22.1558V34.329H30.72V34.6334ZM30.72 33.5254H22.1558V33.2211H30.72V33.5254ZM30.72 32.4175H22.1558V32.1131H30.72V32.4175ZM30.72 31.3095H22.1558V31.0051H30.72V31.3095ZM30.72 30.1954H22.1558V29.891H30.72V30.1954ZM30.72 29.0874H22.1558V28.7831H30.72V29.0874ZM30.72 27.9795H22.1558V27.6751H30.72V27.9795ZM30.72 26.8715H22.1558V26.5671H30.72V26.8715ZM30.72 25.7635H22.1558V25.4591H30.72V25.7635ZM30.72 24.6555H22.1558V24.3511H30.72V24.6555ZM30.72 23.5476H19.2115V23.2432H30.72V23.5476ZM30.72 22.4335H19.2115V22.1291H30.72V22.4335ZM30.72 21.3255H19.2115V21.0211H30.72V21.3255ZM30.72 20.2175H19.2115V19.9131H30.72V20.2175ZM30.72 19.1096H19.2115V18.8052H30.72V19.1096ZM30.72 18.0016H19.2115V17.6972H30.72V18.0016ZM30.72 16.8936H19.2115V16.5892H30.72V16.8936ZM30.72 15.7856H19.2115V15.4812H30.72V15.7856ZM30.72 14.6776H19.2115V14.3732H30.72V14.6776ZM30.1214 13.5636H19.2115V13.2592H30.1214V13.5636ZM27.7513 12.4556H19.2115V12.1512H27.7513V12.4556ZM25.3873 11.3476H19.2115V11.0432H25.3873V11.3476ZM23.0171 10.2396H19.2115V9.93525H23.0171V10.2396ZM20.647 9.13166H19.2115V8.82727H20.647V9.13166Z" fill="#222222"/>
<path d="M7.92894 41.2874H1.52715V40.983H7.92283V41.2874H7.92894ZM7.92894 40.1063H1.52715V39.802H7.92283V40.1063H7.92894ZM7.92894 38.9375H1.52715V38.6331H7.92283V38.9375H7.92894ZM7.92894 37.7625H1.52715V37.4582H7.92283V37.7625H7.92894ZM7.92894 36.5876H1.52715V36.2832H7.92283V36.5876H7.92894ZM7.92894 35.4127H1.52715V35.1083H7.92283V35.4127H7.92894ZM7.92894 34.2438H1.52715V33.9394H7.92283V34.2438H7.92894ZM7.92894 33.0689H1.52715V32.7645H7.92283V33.0689H7.92894ZM7.92894 31.8939H1.52715V31.5895H7.92283V31.8939H7.92894ZM7.92894 30.719H1.52715V30.4146H7.92283V30.719H7.92894ZM7.92894 29.544H1.52715V29.2396H7.92283V29.544H7.92894ZM7.92894 28.3691H1.52715V28.0647H7.92283V28.3691H7.92894ZM7.92894 27.1941H1.52715V26.8897H7.92283V27.1941H7.92894ZM7.92894 26.0253H1.52715V25.7209H7.92283V26.0253H7.92894ZM7.92894 24.8503H1.52715V24.546H7.92283V24.8503H7.92894ZM7.92894 23.6754H1.52715V23.371H7.92283V23.6754H7.92894ZM13.0418 22.5005H1.52715V22.1961H13.0357V22.5005H13.0418ZM13.0418 21.3255H1.52715V21.0211H13.0357V21.3255H13.0418Z" fill="#222222"/>
<path d="M32.2533 42.6328H20.6287V23.6937H9.45608V42.6328H0V19.4809H4.7708V9.31432L24.1289 0V9.15604L32.2472 13.0644V42.6328H32.2533ZM21.2456 42.0179H31.6363V13.4479L18.2952 7.0314V23.0788H21.2395V42.0179H21.2456ZM0.616967 42.0179H8.84522V23.0788H13.9581V20.0958H0.616967V42.0179ZM14.569 23.0788H17.6843V6.05127L23.518 8.85774V0.974047L5.38777 9.69785V19.4809H14.569V23.0788Z" fill="#222222"/>
<path d="M32.2533 42.6328H20.6287V23.6937H9.45608V42.6328H0V19.4809H4.7708V9.31432L24.1289 0V9.15604L32.2472 13.0644V42.6328H32.2533ZM21.2456 42.0179H31.6363V13.4479L18.2952 7.0314V23.0788H21.2395V42.0179H21.2456ZM0.616967 42.0179H8.84522V23.0788H13.9581V20.0958H0.616967V42.0179ZM14.569 23.0788H17.6843V6.05127L23.518 8.85774V0.974047L5.38777 9.69785V19.4809H14.569V23.0788Z" fill="#222222"/>
<path d="M19.0343 43.4668L10.3724 42.3467V24.5216L19.0343 25.6418V43.4668ZM18.0203 37.1477L11.3803 36.2893V41.4578L18.0203 42.3162V37.1477ZM11.9973 36.9894L17.4034 37.6895V41.6222L11.9973 40.9221V36.9894ZM18.0203 34.536L16.1694 34.2743V34.883L17.4034 35.0718V36.058L18.0203 36.1249V34.536ZM14.4101 26.0618L11.7407 25.7148V26.3236L13.7932 26.5975V35.3579L14.4101 35.4188V26.0618ZM18.0203 26.5306L15.3325 26.1836V26.7924L17.4034 27.0663V33.4098L18.0203 33.4768V26.5306Z" fill="#222222"/>
<path d="M16.9025 22.1657H16.597V5.08331H16.9025V22.1657ZM15.7479 22.1657H15.4425V5.64948H15.7479V22.1657ZM13.4389 18.5678H13.1335V6.78789H13.4389V18.5678ZM12.2844 18.5678H11.9789V7.35406H12.2844V18.5678ZM11.1298 18.5678H10.8244V7.92631H11.1298V18.5678ZM9.97532 18.5678H9.66989V8.49248H9.97532V18.5678ZM8.8208 18.5678H8.51537V9.05864H8.8208V18.5678ZM7.66628 18.5678H7.36085V9.6248H7.66628V18.5678ZM6.51176 18.5678H6.20633V10.1971H6.51176V18.5678ZM14.5934 18.513H14.288V6.22173H14.5934V18.513ZM22.6751 7.59148H22.3696V2.2464H22.6751V7.59148ZM21.5205 7.02532H21.2151V2.81256H21.5205V7.02532ZM20.366 6.45915H20.0606V3.37873H20.366V6.45915ZM19.2115 5.8869H18.9061V3.94489H19.2115V5.8869ZM18.057 5.32682H17.7515V4.51106H18.057V5.32682Z" fill="#222222"/>
<path d="M37.2012 13.4966H47.3048C66.327 13.4966 66.3147 42.1093 47.3048 42.1093H37.2012V13.4966ZM48.1967 36.6729C58.4163 36.6729 58.3369 18.933 48.1967 18.933H42.8272V36.6729H48.1967ZM70.3525 42.1519L62.6618 19.3348H67.7991L73.248 35.7658L78.5563 19.3348H83.3882L75.6975 42.1519H70.3525ZM85.9294 19.3287H98.733V23.5537H90.523V28.5091H98.3298V32.5758H90.523V37.8539H98.733V42.0788H85.9294V19.3287ZM112.16 33.489C115.379 32.6975 117.718 30.4816 117.718 26.561C117.718 22.5066 115.061 19.3287 109.203 19.3287H102.343V42.0849H106.937V33.8238L112.477 42.0849H117.932L112.16 33.489ZM106.931 23.365H109.588C111.763 23.365 113.082 24.5338 113.082 26.5428C113.082 28.3752 112.019 29.7876 109.649 29.7876H106.931V23.365ZM120.015 19.3287H124.609V42.0849H120.015V19.3287Z" fill="#222222"/>
<path d="M147.822 13.4966H153.081V25.0026L162.061 13.4966H168.273L157.607 27.2003L169.037 42.1032H162.262L153.081 30.2381V42.1032H147.822V13.4966ZM170.833 34.3778V19.3287H175.426V34.3473C175.402 40.1916 182.512 40.2221 182.537 34.3778V19.3287H187.13V34.3473C187.13 46.3281 170.833 46.2916 170.833 34.3778ZM191.467 19.3287H198.156C203.232 19.3287 206.305 22.0926 206.305 26.5123C206.305 31.3461 202.866 34.0429 198.156 34.0429H196.055V42.0849H191.461V19.3287H191.467ZM198.065 30.0067C200.135 30.0067 201.681 28.8318 201.681 26.5428C201.681 24.5095 200.465 23.365 198.034 23.365H196.055V30.0067H198.065ZM208.895 19.3287H213.489V42.0849H208.895V19.3287ZM219.982 23.6511H215.749V19.3287H228.809V23.6511H224.576V42.0849H219.982V23.6511ZM233.427 20.7655H236.231L240 13.5332H236.512L233.427 20.7655Z" fill="#222222"/>
<path d="M70.3769 52.7203H37.5983V51.6001H70.3769V52.7203ZM227.581 51.5941H194.803V52.7142H227.581V51.5941Z" fill="#828282"/>
<path d="M78.367 47.3265C80.0651 47.3265 81.3174 48.1849 81.8977 49.4085L81.1586 49.8651C80.5416 48.6049 79.3504 48.1727 78.3181 48.1727C76.0274 48.1727 74.7751 50.2121 74.7751 52.1359C74.7751 54.2422 76.3267 56.1477 78.3609 56.1477C79.436 56.1477 80.7065 55.612 81.3113 54.3762L82.0932 54.778C81.4762 56.2025 79.778 56.9939 78.3059 56.9939C75.6792 56.9939 73.8344 54.4979 73.8344 52.0811C73.8283 49.786 75.4837 47.3265 78.367 47.3265ZM90.1443 56.0868V56.9209H83.7181V47.3813H90.0221V48.2153H84.6588V51.6549H89.3319V52.4463H84.6588V56.0868H90.1443ZM98.6963 48.2153H95.2877V56.9148H94.347V48.2153H90.9384V47.3813H98.6963V48.2153ZM100.138 47.3813H101.066V51.0218H103.333C105.19 51.0218 106.46 52.0932 106.46 53.9622C106.46 55.8007 105.153 56.9148 103.333 56.9148H100.138V47.3813ZM101.073 56.099H103.339C104.835 56.099 105.52 55.1858 105.52 53.9622C105.52 52.7386 104.848 51.8437 103.339 51.8437H101.073V56.099ZM119.972 56.9148V49.0859L116.484 55.1432H115.935L112.447 49.0859V56.9148H111.506V47.3813H112.477L116.21 53.9074L119.966 47.3813H120.925V56.9148H119.972ZM126.307 47.3813H127.101L131.078 56.9148H130.082L128.842 53.9318H124.542L123.314 56.9148H122.306L126.307 47.3813ZM128.622 53.1951L126.698 48.4832L124.743 53.1951H128.622ZM137.987 48.2153H133.405V56.9148H132.477V47.3813H137.987V48.2153ZM141.072 47.3813H141.866L145.842 56.9148H144.847L143.607 53.9318H139.306L138.078 56.9148H137.07L141.072 47.3813ZM143.393 53.1951L141.469 48.4832L139.514 53.1951H143.393ZM146.679 48.5136C147.229 47.7587 148.109 47.3204 149.306 47.3204C151.041 47.3204 152.055 48.124 152.055 49.5607C152.055 50.6504 151.487 51.454 150.436 51.7097C151.719 51.8863 152.482 52.8238 152.482 54.1144C152.482 55.7946 151.132 56.9878 149.251 56.9878C147.956 56.9878 146.881 56.3973 146.355 55.472L147.107 54.9058C147.522 55.6424 148.304 56.1295 149.306 56.1295C150.613 56.1295 151.542 55.3502 151.542 54.1692C151.542 52.909 150.503 52.1298 148.793 52.1298H148.133V51.2836H148.793C150.277 51.2836 151.138 50.6687 151.138 49.6155C151.138 48.6354 150.399 48.1362 149.318 48.1362C148.426 48.1362 147.687 48.5258 147.308 49.092L146.679 48.5136ZM155.219 55.5085L161.144 47.3874H161.926V56.9209H160.985V48.9276L155.152 56.9148H154.29V47.3813H155.219V55.5085ZM171.902 47.3813V56.9148H170.973V52.4585H165.298V56.9148H164.357V47.3813H165.298V51.6245H170.973V47.3813H171.902ZM173.704 52.148C173.704 49.6094 175.646 47.3143 178.206 47.3143C180.875 47.3143 182.677 49.7738 182.677 52.1602C182.677 54.6988 180.753 56.9817 178.193 56.9817C175.524 56.9817 173.704 54.5953 173.704 52.148ZM178.193 56.1355C180.362 56.1355 181.736 54.1083 181.736 52.148C181.736 50.0782 180.27 48.1727 178.193 48.1727C176.025 48.1727 174.65 50.1756 174.65 52.148C174.65 54.2179 176.092 56.1355 178.193 56.1355ZM188.786 56.9148H184.271V47.3813H188.877C190.227 47.3813 191.058 48.6171 191.058 49.8103C191.058 50.7661 190.545 51.6367 189.684 52.0263C190.777 52.3489 191.461 53.3047 191.461 54.4553C191.467 55.8799 190.252 56.9148 188.786 56.9148ZM185.212 48.2031V51.7219H188.499C189.439 51.7219 190.13 50.8879 190.13 49.9625C190.13 48.9946 189.482 48.2031 188.578 48.2031H185.212ZM188.877 52.4829H185.212V56.0929H188.78C189.751 56.0929 190.52 55.2345 190.52 54.2909C190.52 53.3595 189.818 52.4829 188.877 52.4829Z" fill="#828282"/>
</svg>
