<svg width="64" height="64" viewBox="0 0 64 64" fill="none" xmlns="http://www.w3.org/2000/svg">
<path d="M55.696 61.8504L47.62 57.4038C40.8741 59.399 33.5202 58.715 27.4014 55.4656L28.0665 54.2114C33.9382 57.3278 41.0261 57.9549 47.4869 55.9596L47.772 55.8646L54.2708 59.4371V52.5962L54.5558 52.3872C59.6485 48.6437 62.5748 43.171 62.5748 37.3943C62.5748 31.6746 59.6485 26.1449 55.0119 22.8575C55.3159 24.2827 55.4679 25.7458 55.4679 27.266C55.4679 34.4299 51.8955 41.1758 45.6627 45.7553C38.0998 51.323 28.0855 52.9952 18.7934 50.2019L9.5962 55.2755V45.5843C3.47744 40.9667 0 34.2969 0 27.247C0 13.8884 12.4466 3 27.7245 3C40.4751 3 51.2304 10.5629 54.4608 20.8052C60.2565 24.2066 63.981 30.6865 63.981 37.3943C63.981 43.5131 60.9596 49.3088 55.677 53.3183V61.8504H55.696ZM27.7245 4.42518C13.2257 4.42518 1.42518 14.6675 1.42518 27.247C1.42518 33.9549 4.8076 40.2827 10.7173 44.6342L11.0024 44.8432V52.8432L18.6223 48.6437L18.9074 48.7387C27.8575 51.5131 37.5297 49.9549 44.8076 44.5962C50.7553 40.2066 54.0428 34.0499 54.0428 27.247C54.0428 14.6675 42.2423 4.42518 27.7245 4.42518ZM26.6793 36.4632H13.6437V35.038H26.6983V36.4632H26.6793ZM41.8242 27.361H13.6437V25.9359H41.8432V27.361H41.8242ZM41.8242 18.2589H13.6437V16.8337H41.8432V18.2589H41.8242Z" fill="#222222"/>
</svg>
