<svg xmlns="http://www.w3.org/2000/svg" fill="none" viewBox="0 11.17 64 42.81">
<path d="M51.5469 53.9752H42.203V52.7479H48.2905C47.4068 51.9788 46.8013 50.8824 46.6541 49.6715H18.5569C18.246 52.0934 16.1841 53.9752 13.6804 53.9752H0.621836V52.7479H10.4403C9.55663 51.9788 8.95116 50.8824 8.80389 49.6715H3.89466C1.75096 49.6551 0 47.9205 0 45.7605V15.0614C0 12.9177 1.75096 11.1667 3.89466 11.1667H40.4684C42.6121 11.1667 44.3631 12.9177 44.3631 15.0614V21.2961H57.2907C59.4017 21.2961 61.3163 23.0144 61.5617 25.1253L63.9673 45.7114C64.0982 46.775 63.7873 47.7569 63.1163 48.526C62.4454 49.2787 61.5127 49.6878 60.449 49.6878H56.4071C56.1289 52.0934 54.0506 53.9752 51.5469 53.9752ZM51.5469 52.7479C53.5761 52.7479 55.2452 51.0952 55.2452 49.0496C55.2452 47.0041 53.5924 45.3514 51.5469 45.3514C49.5014 45.3514 47.8486 47.0041 47.8486 49.0496C47.8486 51.0952 49.5014 52.7479 51.5469 52.7479ZM13.6804 52.7479C15.7095 52.7479 17.3787 51.0952 17.3787 49.0496C17.3787 47.0041 15.7259 45.3514 13.6804 45.3514C11.6349 45.3514 9.9821 47.0041 9.9821 49.0496C9.9821 51.0952 11.6349 52.7479 13.6804 52.7479ZM56.4234 48.4278H60.4654C61.1526 48.4278 61.7745 48.166 62.1999 47.6751C62.6418 47.1841 62.8218 46.5296 62.74 45.8259L61.0872 31.7364H48.6505V30.5091H60.9399L60.3181 25.2399C60.1381 23.7344 58.7635 22.5071 57.258 22.5071H44.3303V45.7605H43.103V15.0614C43.103 13.5886 41.9085 12.3941 40.4357 12.3941H3.89466C2.42189 12.3941 1.22731 13.5886 1.22731 15.0614V45.7605C1.22731 47.2332 2.42189 48.4278 3.89466 48.4278H8.78752C9.09844 46.0059 11.1603 44.124 13.664 44.124C16.1677 44.124 18.246 46.0059 18.5405 48.4278H46.6377C46.9486 46.0059 49.0105 44.124 51.5142 44.124C54.0179 44.124 56.1289 46.0059 56.4234 48.4278Z" fill="white"/>
</svg>