<svg width="64" height="64" viewBox="0 0 64 64" fill="none" xmlns="http://www.w3.org/2000/svg">
<path d="M15.9594 64H14.6055L14.9165 63.0486L26.0223 35.8788H17.789L30.8342 6.42196C17.2401 7.02573 6.37221 18.2962 6.37221 32C6.37221 39.7027 9.7936 46.948 15.7764 51.833L14.8982 52.8942C8.60435 47.7347 5 40.1235 5 32C5 17.3265 16.8193 5.32419 31.438 5.01315L33.6518 0H53.6861L38.2258 25.0292H46.4225L22.3997 55.7667C25.4551 56.9926 28.6752 57.6146 31.9869 57.6146C46.1115 57.6146 57.6015 46.1246 57.6015 32C57.6015 25.3219 55.04 18.9914 50.3928 14.1795L51.3808 13.2281C56.2842 18.2962 58.9737 24.956 58.9737 32C58.9737 46.8748 46.8616 58.9869 31.9869 58.9869C28.3642 58.9869 24.833 58.2733 21.5214 56.8828L15.9594 64ZM19.8931 34.5066H28.0715L17.972 59.1881L43.6232 26.4014H35.7742L51.2344 1.37221H34.5483L19.8931 34.5066Z" fill="#222222"/>
</svg>
