<svg width="64" height="64" viewBox="0 0 64 64" fill="none" xmlns="http://www.w3.org/2000/svg">
<path d="M29.4176 61.5984L29.1488 61.4832C1.9808 50.424 2 25.9248 2 9.72V8.664L2.4224 8.472C10.0064 4.8816 19.28 3 29.2448 3C29.36 3 29.456 3 29.5712 3C36.9632 3 44.2016 4.0752 50.5184 6.1296L50.0768 7.4928C43.9136 5.4768 36.8288 4.4208 29.5712 4.4208C29.4752 4.4208 29.36 4.4208 29.264 4.4208C19.8176 4.4208 10.6784 6.2448 3.44 9.5664V9.72C3.44 25.4832 3.44 49.2912 29.4176 60.0432C51.7472 50.808 55.0688 32.1648 55.3568 15.1536L56.7968 15.1728C56.4896 32.7408 53.0144 51.9792 29.6864 61.4832L29.4176 61.5984ZM29.4368 39.7488L16.2848 26.3472L17.3216 25.3296L29.3984 37.6368L60.944 3.2304L62 4.2096L29.4368 39.7488Z" fill="black"/>
</svg>
