<svg xmlns="http://www.w3.org/2000/svg" fill="none" viewBox="2 4.5 60 56.88">
<path d="M58.989 61.3826H5.01095C3.35036 61.3826 2 60.0323 2 58.3717V25.525C2 23.8644 3.35036 22.514 5.01095 22.514H42.5109L31.2883 6.56512C31.0328 6.20016 30.6496 5.96293 30.2299 5.88994C29.792 5.81695 29.354 5.90819 28.989 6.16366L10.9416 18.8644L10.1569 17.7513L28.1861 5.05052C29.5547 4.08337 31.4343 4.43008 32.4015 5.78045L44.1898 22.514H58.989C60.6496 22.514 62 23.8644 62 25.525V58.3534C62 60.0323 60.6496 61.3826 58.989 61.3826ZM5.01095 23.8826C4.09854 23.8826 3.36861 24.6308 3.36861 25.525V58.3534C3.36861 59.2659 4.11679 59.9958 5.01095 59.9958H58.9708C59.8832 59.9958 60.6131 59.2476 60.6131 58.3534V25.525C60.6131 24.6126 59.865 23.8826 58.9708 23.8826H5.01095ZM9.64599 56.4191H8.27737V53.0797H9.64599V56.4191ZM41.1788 50.8534H39.8102V47.879H36.7445V46.5104H39.8102V42.6965H36.7445V41.3279H39.8102V32.7513H45.9781C48.7153 32.7513 50.9416 34.9775 50.9416 37.7148C50.9416 40.452 48.7153 42.6783 45.9781 42.6783H41.1971V46.4921H45.9781V47.8607H41.1971V50.8534H41.1788ZM41.1788 41.3279H45.9599C47.9489 41.3279 49.5547 39.7038 49.5547 37.733C49.5547 35.7622 47.9489 34.1381 45.9599 34.1381H41.1788V41.3279ZM9.64599 50.0505H8.27737V46.7111H9.64599V50.0505ZM9.64599 43.6819H8.27737V40.3425H9.64599V43.6819ZM9.64599 37.3133H8.27737V33.9739H9.64599V37.3133ZM9.64599 30.9447H8.27737V27.6053H9.64599V30.9447Z" fill="white"/>
</svg>