<svg xmlns="http://www.w3.org/2000/svg" fill="none" viewBox="6 2 51.56 60">
<path d="M16.025 62C11.8382 62 8.43536 58.5972 8.43536 54.4103C8.43536 50.4404 11.5046 47.171 15.4078 46.8374V11.8415C15.4078 10.0734 14.5238 8.45538 13.0225 7.52127L6 3.05088L6.66722 2L13.6897 6.47039C15.5413 7.63803 16.6589 9.65638 16.6589 11.8415V46.8374C20.412 47.1376 23.3978 50.1902 23.6147 53.9766H44.2819C47.151 53.9766 49.9533 55.1443 51.9716 57.196L55.6414 60.9324L54.7573 61.8165L51.0876 58.0801C49.3028 56.2786 46.834 55.2277 44.2986 55.2277H23.5646C23.1643 59.0309 19.9283 62 16.025 62ZM16.025 48.0717C12.5221 48.0717 9.68641 50.9241 9.68641 54.4103C9.68641 57.8966 12.5388 60.749 16.025 60.749C19.5113 60.749 22.3636 57.8966 22.3636 54.4103C22.3636 50.9241 19.5279 48.0717 16.025 48.0717ZM53.6731 47.0709H26.2836C24.1318 47.0709 22.397 45.3194 22.397 43.1843V15.7781C22.397 13.6264 24.1485 11.8916 26.2836 11.8916H53.6731C55.8249 11.8916 57.5596 13.643 57.5596 15.7781V43.1676C57.5596 45.3194 55.8249 47.0709 53.6731 47.0709ZM26.2836 13.1426C24.8324 13.1426 23.648 14.3269 23.648 15.7781V43.1676C23.648 44.6188 24.8324 45.8032 26.2836 45.8032H53.6731C55.1243 45.8032 56.3086 44.6188 56.3086 43.1676V15.7781C56.3086 14.3269 55.1243 13.1426 53.6731 13.1426H26.2836ZM51.3711 28.9892H28.5855V27.7381H51.3711V28.9892ZM51.3711 21.5329H28.5855V20.2819H51.3711V21.5329Z" fill="white"/>
</svg>