<svg xmlns="http://www.w3.org/2000/svg" fill="none" viewBox="12 2.5 40.43 60">
<path d="M52.427 62.5H12V61.219H52.427V62.5ZM47.5764 56.693H16.8506C15.2963 56.693 14.0325 55.4291 14.0325 53.8749V5.3181C14.0325 3.76388 15.2963 2.5 16.8506 2.5H47.5764C49.1307 2.5 50.3945 3.76388 50.3945 5.3181V53.8749C50.4116 55.4291 49.1477 56.693 47.5764 56.693ZM16.8506 3.78096C15.9966 3.78096 15.3134 4.48121 15.3134 5.3181V53.8749C15.3134 54.7289 16.0137 55.412 16.8506 55.412H47.5764C48.4304 55.412 49.1136 54.7118 49.1136 53.8749V5.3181C49.1136 4.46413 48.4133 3.78096 47.5764 3.78096H16.8506ZM42.2989 31.3813C40.8984 31.3813 39.7711 30.237 39.7711 28.8535C39.7711 27.453 40.9155 26.3258 42.2989 26.3258C43.6994 26.3258 44.8266 27.4701 44.8266 28.8535C44.8266 30.2541 43.6823 31.3813 42.2989 31.3813ZM42.2989 27.6067C41.6157 27.6067 41.0521 28.1704 41.0521 28.8535C41.0521 29.5367 41.6157 30.1003 42.2989 30.1003C42.9821 30.1003 43.5457 29.5367 43.5457 28.8535C43.5457 28.1704 42.9821 27.6067 42.2989 27.6067Z" fill="white"/>
</svg>